<?xml version="1.0" standalone="no"?>
<!DOCTYPE svg PUBLIC "-//W3C//DTD SVG 20010904//EN"
 "http://www.w3.org/TR/2001/REC-SVG-20010904/DTD/svg10.dtd">
<svg version="1.0" xmlns="http://www.w3.org/2000/svg"
 width="700.000000pt" height="700.000000pt" viewBox="0 0 700.000000 700.000000"
 preserveAspectRatio="xMidYMid meet">
<metadata>
Created by potrace 1.14, written by Peter Selinger 2001-2017
</metadata>
<g transform="translate(0.000000,700.000000) scale(0.100000,-0.100000)"
fill="#000000" stroke="none">
<path d="M5060 6518 c-200 -30 -390 -195 -447 -388 -20 -68 -22 -77 -23 -171
-2 -148 53 -284 159 -390 122 -121 242 -171 421 -173 l75 -1 12 -35 c6 -19 30
-87 53 -150 23 -63 61 -170 85 -237 l44 -121 -30 -25 c-44 -36 -135 -153 -175
-224 -64 -114 -106 -256 -119 -403 -10 -121 -16 -165 -32 -235 -16 -73 -60
-204 -73 -218 -4 -4 -15 14 -24 40 -10 26 -24 62 -31 78 -7 17 -23 55 -36 85
-116 274 -304 547 -538 780 -243 242 -515 425 -823 554 -91 38 -268 100 -318
111 -8 2 -53 13 -100 24 -47 11 -116 25 -155 31 -38 6 -81 13 -93 15 -162 28
-493 24 -712 -9 -350 -54 -690 -187 -929 -365 -48 -36 -65 -81 -47 -125 33
-80 99 -87 197 -21 155 104 395 216 538 251 89 21 194 44 231 49 24 4 47 8 50
10 29 18 486 27 605 13 438 -55 811 -204 1165 -466 132 -98 358 -319 447 -437
182 -242 321 -514 397 -778 l25 -87 -34 -54 c-150 -235 -389 -453 -630 -574
-192 -96 -375 -143 -614 -158 l-103 -7 8 74 c14 119 8 344 -10 444 -49 266
-158 478 -340 662 -191 192 -415 306 -691 350 -96 15 -323 7 -423 -15 -404
-91 -699 -396 -776 -802 -16 -84 -15 -274 2 -356 63 -303 265 -533 552 -628
151 -50 352 -54 457 -11 65 27 80 116 28 165 -28 26 -26 26 -200 16 -124 -7
-200 9 -311 64 -164 82 -278 230 -320 415 -45 200 0 427 121 609 96 145 306
292 457 320 125 23 160 27 227 28 286 2 544 -110 744 -321 184 -196 278 -427
279 -691 2 -486 -229 -890 -616 -1075 -127 -61 -241 -95 -401 -120 -76 -12
-354 -13 -401 -2 -12 3 -39 8 -60 11 -165 27 -383 112 -532 209 -375 245 -607
613 -676 1069 -29 189 -24 438 13 618 3 19 5 45 3 57 -4 26 -48 72 -71 74 -9
1 -26 3 -39 4 -25 2 -66 -25 -82 -55 -5 -10 -12 -36 -15 -57 -3 -21 -8 -44
-10 -51 -26 -75 -25 -514 0 -642 49 -244 82 -347 165 -515 139 -280 323 -487
587 -661 51 -34 87 -64 80 -67 -6 -3 -149 -60 -317 -127 -306 -123 -385 -154
-603 -235 -163 -61 -229 -114 -280 -225 -31 -66 -30 -225 1 -294 57 -125 166
-206 312 -231 55 -10 183 -34 206 -39 12 -2 39 -7 60 -10 51 -8 92 -15 129
-21 27 -5 184 -29 260 -40 32 -4 235 -30 325 -41 30 -3 66 -8 80 -9 14 -2 52
-6 85 -9 33 -4 80 -8 105 -11 25 -3 77 -7 115 -11 39 -3 81 -7 95 -9 14 -2 77
-7 140 -10 63 -4 131 -8 150 -10 301 -24 1038 -25 1340 0 131 10 199 16 225
19 17 3 62 7 100 11 58 5 281 37 417 60 114 19 430 93 533 125 547 171 920
375 1230 672 338 324 552 735 624 1198 9 59 13 88 26 215 26 258 26 894 0
1020 -2 11 -7 47 -10 80 -30 302 -138 660 -257 851 -36 58 -110 136 -137 145
-8 3 16 83 77 254 l89 250 86 2 c225 4 412 121 508 319 122 252 40 558 -192
713 -107 71 -197 96 -337 94 -182 -3 -362 -107 -458 -265 -116 -190 -110 -443
15 -618 33 -46 139 -148 163 -156 10 -3 18 -11 18 -18 0 -8 -21 -71 -46 -142
-25 -71 -62 -175 -82 -232 l-37 -103 -40 8 c-79 15 -204 8 -288 -17 -22 -6
-40 -10 -42 -8 -5 5 -162 448 -170 478 -5 21 -1 28 23 42 16 10 52 40 80 68
222 221 224 574 4 798 -127 129 -307 188 -492 160z m242 -230 c72 -34 142
-103 176 -176 23 -49 27 -70 27 -152 0 -83 -3 -102 -27 -150 -108 -220 -388
-276 -567 -114 -203 182 -131 517 130 607 70 25 191 17 261 -15z m1235 17
c214 -64 317 -307 216 -509 -72 -143 -241 -221 -393 -182 -85 22 -136 51 -191
107 -63 65 -91 138 -92 244 -1 70 2 88 29 145 79 165 258 246 431 195z m-581
-1525 c81 -27 163 -97 210 -179 38 -68 109 -256 137 -366 30 -114 63 -297 72
-400 4 -38 8 -83 10 -100 21 -159 21 -664 1 -860 -2 -16 -7 -68 -11 -115 -4
-47 -8 -87 -10 -90 -2 -3 -6 -30 -10 -60 -3 -30 -10 -71 -15 -90 -5 -19 -11
-46 -14 -60 -11 -58 -59 -205 -96 -296 -90 -221 -218 -411 -400 -595 -298
-300 -649 -496 -1185 -662 -43 -13 -230 -62 -275 -72 -28 -6 -175 -37 -195
-41 -49 -10 -195 -33 -250 -40 -33 -5 -62 -8 -65 -9 -3 -1 -34 -5 -70 -9 -36
-4 -78 -10 -95 -12 -16 -2 -66 -6 -110 -9 -44 -4 -87 -8 -95 -10 -8 -2 -76 -7
-150 -10 -74 -4 -169 -8 -210 -10 -98 -6 -551 -6 -705 0 -156 5 -448 21 -545
30 -30 3 -86 7 -125 10 -77 6 -138 12 -200 19 -22 2 -67 7 -100 11 -121 12
-212 23 -240 29 -12 2 -52 7 -90 11 -38 3 -72 8 -75 10 -3 2 -29 6 -59 9 -51
6 -154 21 -211 31 -14 3 -65 12 -115 20 -49 8 -103 17 -120 20 -16 3 -68 13
-115 21 -47 9 -103 24 -126 34 -107 47 -130 197 -42 276 12 12 97 49 188 84
154 58 532 205 610 237 19 8 125 52 235 97 l200 82 70 -22 c67 -21 196 -51
260 -59 98 -14 140 -17 225 -17 92 0 201 7 265 18 119 19 158 29 251 59 349
114 643 374 806 711 l48 101 88 0 c105 1 227 11 296 24 28 6 64 13 81 16 65
11 206 57 305 99 207 87 377 204 560 384 175 173 270 299 368 490 91 176 164
395 187 560 44 311 98 446 231 581 127 130 266 169 420 119z"/>
<path d="M5088 6176 c-154 -46 -209 -249 -99 -366 92 -98 241 -95 330 6 146
166 -18 422 -231 360z"/>
<path d="M6372 6175 c-127 -38 -197 -184 -143 -300 100 -216 413 -161 427 75
8 153 -137 268 -284 225z"/>
<path d="M3265 4761 c-52 -22 -76 -90 -50 -141 12 -22 44 -43 147 -93 73 -35
164 -85 202 -110 84 -57 122 -69 163 -52 57 24 78 82 51 139 -17 38 -130 110
-323 206 -117 59 -150 67 -190 51z"/>
<path d="M883 4747 c-55 -31 -285 -375 -306 -458 -12 -46 10 -95 49 -114 66
-31 120 -3 165 88 40 79 123 207 190 293 45 57 53 73 52 107 -2 75 -84 121
-150 84z"/>
<path d="M3932 4290 c-34 -21 -55 -70 -45 -109 3 -14 27 -51 53 -81 188 -223
282 -411 335 -670 21 -103 27 -115 66 -135 52 -27 111 -8 139 44 32 61 -40
334 -143 539 -42 83 -123 216 -150 244 -6 7 -25 31 -42 53 -49 65 -111 125
-131 126 -10 0 -26 2 -36 4 -9 2 -29 -5 -46 -15z"/>
</g>
</svg>
